<?xml version="1.0" standalone="no"?>
<!DOCTYPE svg PUBLIC "-//W3C//DTD SVG 20010904//EN"
 "http://www.w3.org/TR/2001/REC-SVG-20010904/DTD/svg10.dtd">
<svg version="1.0" xmlns="http://www.w3.org/2000/svg"
 width="1000.000000pt" height="1000.000000pt" viewBox="0 0 1000.000000 1000.000000"
 preserveAspectRatio="xMidYMid meet">
<metadata>
Created by potrace 1.11, written by Peter Selinger 2001-2013
</metadata>
<g transform="translate(0.000000,1000.000000) scale(0.100000,-0.100000)"
fill="#000000" stroke="none">
<path d="M0 5000 l0 -5000 5000 0 5000 0 0 5000 0 5000 -5000 0 -5000 0 0
-5000z m5110 -1925 l0 -195 160 0 160 0 0 -110 0 -110 -160 0 -161 0 3 -612
c3 -698 -1 -662 86 -700 39 -17 59 -20 136 -15 50 2 99 8 109 12 16 7 17 -2
17 -102 l0 -110 -79 -16 c-116 -25 -291 -24 -362 3 -120 44 -180 134 -199 296
-5 50 -10 337 -10 666 l0 577 -97 3 -98 3 -3 108 -3 107 108 0 108 0 24 108
c12 59 32 146 43 195 l20 87 99 0 99 0 0 -195z m1418 -178 c8 -6 12 -45 12
-136 l0 -128 -103 5 c-77 3 -118 0 -159 -12 -78 -22 -148 -87 -193 -179 -67
-136 -68 -149 -72 -769 l-4 -558 -145 0 -144 0 0 608 c0 335 -3 731 -7 880
l-6 272 135 0 135 0 7 -46 c3 -26 6 -108 6 -182 0 -75 4 -132 8 -126 5 5 21
44 36 87 59 164 129 238 276 291 22 8 203 2 218 -7z m515 -684 c91 -368 173
-708 183 -758 l18 -89 33 134 c35 139 322 1234 349 1328 l15 53 156 -3 157 -3
183 -725 c101 -399 187 -738 191 -755 6 -24 12 -8 36 100 15 72 101 411 190
755 l162 625 142 3 c78 1 142 -1 142 -6 0 -7 -418 -1470 -481 -1685 l-20 -67
-169 0 c-152 0 -169 2 -174 18 -20 67 -303 1225 -327 1337 -16 76 -31 141 -33
143 -2 2 -11 -32 -20 -75 -31 -143 -83 -353 -220 -887 -75 -290 -136 -530
-136 -532 0 -2 -76 -4 -169 -4 l-169 0 -11 33 c-13 41 -481 1717 -481 1723 0
2 65 4 144 4 l144 0 165 -667z"/>
</g>
</svg>
