<?xml version="1.0" encoding="UTF-8" standalone="no"?>
<!DOCTYPE svg PUBLIC "-//W3C//DTD SVG 1.1//EN" "http://www.w3.org/Graphics/SVG/1.1/DTD/svg11.dtd">
<svg width="100%" height="100%" viewBox="0 0 1262 1420" version="1.1" xmlns="http://www.w3.org/2000/svg" xmlns:xlink="http://www.w3.org/1999/xlink" xml:space="preserve" xmlns:serif="http://www.serif.com/" style="fill-rule:evenodd;clip-rule:evenodd;stroke-linejoin:round;stroke-miterlimit:2;">
    <g id="Layer-1" serif:id="Layer 1" transform="matrix(1,0,0,1,-462.851,-19.1509)">
        <g transform="matrix(1,0,0,1,1261.76,850.954)">
            <path d="M0,-58.768C-27.183,-43.061 -41.54,-13.676 -39.415,15.675L6.467,15.675C4.108,2.124 10.203,-12.043 22.776,-19.307C38.928,-28.618 59.548,-23.105 68.858,-6.963C72.542,-0.591 73.865,6.485 73.163,13.293C79.666,9.846 84.11,3.015 84.11,-4.842L84.11,-55.747C59.757,-72.217 27.165,-74.443 0,-58.768" style="fill:rgb(152,27,255);fill-rule:nonzero;"/>
        </g>
        <g transform="matrix(1,0,0,1,925.233,607.059)">
            <path d="M0,56.016C26.37,40.808 40.662,12.745 39.587,-15.688L-6.091,-15.688C-4.933,-3.001 -11.015,9.798 -22.767,16.575C-38.898,25.885 -59.508,20.358 -68.818,4.231C-72.002,-1.277 -73.415,-7.306 -73.306,-13.232C-79.728,-9.761 -84.102,-2.967 -84.102,4.83L-84.102,53.01C-59.747,69.484 -27.163,71.704 0,56.016" style="fill:rgb(152,27,255);fill-rule:nonzero;"/>
        </g>
        <g transform="matrix(1,0,0,1,873.025,866.629)">
            <path d="M0,-104.144C-11.343,-104.131 -22.131,-101.734 -31.894,-97.439L-31.894,-35.679C-27.392,-48.994 -14.842,-58.587 0,-58.572C18.621,-58.572 33.724,-43.49 33.724,-24.849C33.724,-14.998 29.466,-6.164 22.721,0L75.294,0C77.878,-7.819 79.295,-16.166 79.295,-24.849C79.295,-68.637 43.788,-104.123 0,-104.144" style="fill:rgb(238,95,133);fill-rule:nonzero;"/>
        </g>
        <g transform="matrix(1,0,0,1,1311.65,591.392)">
            <path d="M0,102.736C12.258,102.736 23.862,99.953 34.217,94.991L34.217,20.498C34.217,15.8 32.613,11.481 29.947,8.018C32.346,12.651 33.723,17.898 33.723,23.475C33.723,42.101 18.621,57.198 0,57.198C-18.631,57.198 -33.694,42.101 -33.694,23.475C-33.694,14.33 -30.048,6.05 -24.145,-0.021L-75.688,-0.021C-77.532,5.865 -78.71,12.031 -79.106,18.393C-81.981,64.484 -45.44,102.757 0,102.736" style="fill:rgb(238,95,133);fill-rule:nonzero;"/>
        </g>
        <g transform="matrix(1,0,0,1,1331.01,1366.63)">
            <path d="M0,-489.745C-2.869,-484.442 -7.158,-479.826 -12.758,-476.591C-28.889,-467.28 -49.499,-472.808 -58.81,-488.934C-58.86,-489.023 -58.897,-489.116 -58.947,-489.205L-107.121,-489.205C-105.431,-481.303 -102.511,-473.524 -98.256,-466.148C-89.69,-451.306 -77.028,-440.28 -62.543,-433.689C-70.657,-341.913 -84.731,-258.85 -103.391,-189.228C-105.645,-180.942 -107.938,-172.793 -110.31,-164.85C-111.576,-160.59 -113.125,-155.721 -114.803,-150.629C-124.741,-120.467 -145.429,-95.005 -172.93,-79.123L-172.94,-79.117C-212.931,-56.024 -262.205,-56.025 -302.194,-79.12L-330.289,-95.346L-330.318,-95.346L-406.164,-139.104C-362.983,-7.73 -301.084,72.867 -230.276,72.148L-230.247,72.148L-230.247,72.216L-226.307,72.079L-222.74,72.079L-222.27,71.805C-153.961,65.096 -96.031,-18.036 -57.064,-148.964C-49.773,-173.479 -43.06,-199.774 -36.964,-227.612C-23.685,-288.349 -13.482,-356.516 -6.975,-429.789C-1.153,-431.553 4.53,-433.964 10.009,-437.149C47.946,-459.043 60.922,-507.511 39.038,-545.429C35.295,-551.908 30.762,-557.639 25.652,-562.612L25.652,-520.521C25.652,-505.19 14.569,-492.422 0,-489.745" style="fill:rgb(152,27,255);fill-rule:nonzero;"/>
        </g>
        <g transform="matrix(1,0,0,1,854.535,88.3539)">
            <path d="M0,493.066C2.746,486.493 7.554,480.722 14.199,476.884C30.33,467.569 50.94,473.101 60.251,489.228C60.817,490.209 61.325,491.208 61.783,492.218L109.141,492.218C107.572,483.382 104.472,474.664 99.727,466.442C91.171,451.633 78.538,440.628 64.093,434.003C72.236,343.32 86.241,261.217 104.725,192.277C106.959,183.956 109.252,175.827 111.614,167.883C112.898,163.56 114.198,159.301 115.513,155.108C125.201,124.194 146.252,98.125 174.335,81.972L174.356,81.96C214.313,58.978 263.485,59.019 303.404,82.067L407.468,142.153C364.288,10.779 302.418,-69.834 231.62,-69.114L231.552,-69.114L231.552,-69.203L227.611,-69.065L224.055,-69.031L223.574,-68.756C155.266,-62.082 97.335,21.084 58.369,152.031C51.078,176.527 44.364,202.807 38.269,230.64C25.155,290.629 15.062,357.82 8.554,430.063C2.703,431.793 -3.05,434.238 -8.567,437.443C-46.466,459.322 -59.48,507.799 -37.597,545.703C-33.851,552.187 -29.314,557.923 -24.202,562.9L-24.202,523.536C-24.202,508.718 -13.846,496.3 0,493.066" style="fill:rgb(152,27,255);fill-rule:nonzero;"/>
        </g>
        <g transform="matrix(1,0,0,1,830.333,380.473)">
            <path d="M0,465.638L0,394.506C-1.08,395.198 -2.149,395.907 -3.192,396.649C-77.656,344.266 -141.79,291.094 -192.223,240.608C-198.318,234.511 -204.208,228.454 -209.922,222.443C-213.04,219.141 -216.097,215.86 -219.088,212.6C-240.97,188.757 -252.998,157.526 -252.943,125.163L-252.943,125.137C-252.866,79.054 -228.253,36.498 -188.348,13.451L-160.136,-2.843L-160.106,-2.843L-84.271,-46.636C-219.644,-74.935 -320.372,-61.666 -355.164,0.033L-355.193,0.067L-355.262,0.033L-357.114,3.507L-358.858,6.604L-358.858,7.153C-387.24,69.64 -344.167,161.396 -250.25,260.62C-232.688,279.197 -213.312,298.146 -192.223,317.334C-146.817,358.662 -93.68,401.03 -34.378,442.784C-35.818,448.728 -36.573,454.908 -36.573,461.292C-36.573,505.066 -1.066,540.573 42.692,540.573C73.647,540.559 100.444,522.809 113.504,496.954L31.317,496.954C14.05,496.954 0,482.906 0,465.638" style="fill:rgb(238,95,133);fill-rule:nonzero;"/>
        </g>
        <g transform="matrix(1,0,0,1,1606.96,868.5)">
            <path d="M0,-51.456C-17.602,-70.027 -36.977,-88.981 -58.067,-108.171C-104.051,-150.042 -157.942,-192.963 -218.166,-235.213C-216.794,-241.137 -216.039,-247.302 -216.01,-253.618C-216.041,-299.065 -254.257,-335.57 -300.317,-332.739C-329.413,-330.949 -354.51,-313.028 -366.694,-287.928L-281.605,-287.928C-264.338,-287.928 -250.289,-273.878 -250.289,-256.61L-250.289,-188.393C-249.968,-188.616 -249.64,-188.83 -249.321,-189.059C-173.897,-136.145 -109.01,-82.425 -58.067,-31.443C-51.972,-25.348 -46.081,-19.286 -40.368,-13.278C-37.256,-9.988 -34.207,-6.718 -31.222,-3.468C-9.32,20.378 2.718,51.624 2.664,84.001L2.663,84.023C2.586,130.108 -22.028,172.666 -61.938,195.713L-90.153,212.008L-90.183,212.008L-166.019,255.801C-30.675,284.114 70.082,270.83 104.874,209.131L104.903,209.097L104.972,209.131L106.824,205.643L108.568,202.561L108.568,202.012C136.95,139.524 93.878,47.769 0,-51.456" style="fill:rgb(238,95,133);fill-rule:nonzero;"/>
        </g>
        <g transform="matrix(1,0,0,1,1135.32,423.805)">
            <path d="M0,74.786C-9.31,90.912 -29.92,96.445 -46.042,87.13C-62.173,77.819 -67.681,57.209 -58.37,41.062C-49.061,24.936 -28.45,19.424 -12.318,28.739C3.804,38.05 9.32,58.66 0,74.786M10.448,-10.723C-27.45,-32.602 -75.933,-19.626 -97.846,18.297C-119.73,56.215 -106.716,104.696 -68.817,126.576C-30.91,148.47 17.572,135.475 39.486,97.572C48.003,82.749 51.257,66.333 49.757,50.496C132.374,12.201 210.474,-16.73 279.39,-35.184C287.75,-37.413 295.933,-39.482 303.979,-41.402C308.359,-42.451 312.692,-43.455 316.977,-44.413C348.602,-51.487 381.716,-46.289 409.753,-30.037C449.627,-6.923 474.172,35.677 474.172,81.765L474.172,201.951C566.374,98.855 605.242,4.978 569.216,-56.005L569.187,-56.039L569.256,-56.088L567.197,-59.425L565.385,-62.493L564.904,-62.767C524.987,-118.575 423.984,-127.165 291.102,-95.461C266.209,-89.523 240.119,-82.196 212.973,-73.547C154.455,-54.907 91.213,-30.068 25.413,0.421C20.964,-3.774 15.966,-7.523 10.448,-10.723" style="fill:rgb(249,42,173);fill-rule:nonzero;"/>
        </g>
        <g transform="matrix(1,0,0,1,1054.11,1035.48)">
            <path d="M0,-77.309C9.31,-93.436 29.92,-98.949 46.052,-89.653C62.174,-80.337 67.721,-59.727 58.41,-43.581C49.1,-27.474 28.479,-21.948 12.358,-31.243C-3.773,-40.573 -9.281,-61.183 0,-77.309M-10.408,8.204C27.489,30.098 75.973,17.102 97.847,-20.815C119.761,-58.733 106.756,-107.201 68.848,-129.094C30.949,-150.989 -17.562,-137.998 -39.446,-100.076C-48.002,-85.233 -51.227,-68.768 -49.718,-52.912C-133.227,-14.038 -212.218,15.29 -281.82,33.916C-290.141,36.139 -298.353,38.227 -306.399,40.148C-310.73,41.182 -315.729,42.276 -320.986,43.369C-352.077,49.836 -384.469,44.645 -411.969,28.764L-411.998,28.747C-451.977,5.662 -476.602,-36.996 -476.602,-83.162L-476.602,-203.205C-568.804,-100.129 -607.663,-6.246 -571.646,54.716L-571.617,54.765L-571.686,54.819L-569.598,58.171L-567.775,61.239L-567.334,61.494C-527.378,117.337 -426.404,125.896 -293.492,94.193C-268.639,88.234 -242.511,80.922 -215.393,72.279C-156.13,53.399 -92.006,28.163 -25.275,-2.856C-20.885,1.304 -15.887,5.034 -10.408,8.204" style="fill:rgb(249,42,173);fill-rule:nonzero;"/>
        </g>
        <g opacity="0.97">
            <g transform="matrix(1,0,0,1,1091.39,779.101)">
                <path d="M0,-8.642C-110.972,-8.642 -206.604,-42.467 -250.254,-91.205L-250.254,67.01C-250.254,78.324 -241.049,87.528 -229.735,87.528L233.965,87.528C245.278,87.528 254.482,78.324 254.482,67.01L254.482,-96.17C213.022,-44.78 114.704,-8.642 0,-8.642" style="fill:rgb(6,215,217);fill-rule:nonzero;"/>
            </g>
            <g transform="matrix(1,0,0,1,1091.39,591.371)">
                <path d="M0,179.088C114.704,179.088 213.022,142.95 254.482,91.56L254.482,20.519C254.482,9.205 245.278,0 233.965,0L-229.735,0C-241.049,0 -250.254,9.205 -250.254,20.519L-250.254,96.525C-206.604,145.263 -110.972,179.088 0,179.088" style="fill:rgb(6,215,217);fill-rule:nonzero;"/>
            </g>
            <g opacity="0.18">
                <g transform="matrix(1,0,0,1,1091.39,591.371)">
                    <path d="M0,179.088C114.704,179.088 213.022,142.95 254.482,91.56L254.482,20.519C254.482,9.205 245.278,0 233.965,0L-229.735,0C-241.049,0 -250.254,9.205 -250.254,20.519L-250.254,96.525C-206.604,145.263 -110.972,179.088 0,179.088" style="fill:white;fill-rule:nonzero;"/>
                </g>
            </g>
        </g>
        <g transform="matrix(1,0,0,1,894.13,796.835)">
            <path d="M0,40.318C2.402,40.318 4.378,40.067 5.927,39.567C8.688,38.639 10.95,36.853 12.712,34.211C14.116,32.092 15.129,29.379 15.746,26.069C16.105,24.092 16.282,22.259 16.282,20.57C16.282,14.07 14.991,9.023 12.408,5.429C9.824,1.835 5.665,0.036 -0.072,0.036L-12.679,0.036L-12.679,40.318L0,40.318ZM-19.82,-6.07L1.428,-6.07C8.641,-6.07 14.234,-3.512 18.212,1.607C21.758,6.226 23.531,12.142 23.531,19.355C23.531,24.925 22.483,29.963 20.389,34.462C16.7,42.413 10.355,46.388 1.355,46.388L-19.82,46.388L-19.82,-6.07Z" style="fill:white;fill-rule:nonzero;"/>
        </g>
        <g transform="matrix(1,0,0,1,927.481,843.224)">
            <path d="M0,-52.458L38.245,-52.458L38.245,-46.03L6.929,-46.03L6.929,-30.104L35.889,-30.104L35.889,-24.033L6.929,-24.033L6.929,-6.249L38.78,-6.249L38.78,0L0,0L0,-52.458Z" style="fill:white;fill-rule:nonzero;"/>
        </g>
        <g transform="matrix(1,0,0,1,979.727,843.224)">
            <path d="M0,-52.458L15.07,-7.785L29.963,-52.458L37.925,-52.458L18.784,0L11.25,0L-7.856,-52.458L0,-52.458Z" style="fill:white;fill-rule:nonzero;"/>
        </g>
        <g transform="matrix(1,0,0,1,1025.04,843.224)">
            <path d="M0,-52.458L38.245,-52.458L38.245,-46.03L6.929,-46.03L6.929,-30.104L35.889,-30.104L35.889,-24.033L6.929,-24.033L6.929,-6.249L38.78,-6.249L38.78,0L0,0L0,-52.458Z" style="fill:white;fill-rule:nonzero;"/>
        </g>
        <g transform="matrix(1,0,0,1,1073.14,843.224)">
            <path d="M0,-52.458L7.108,-52.458L7.108,-6.249L33.677,-6.249L33.677,0L0,0L0,-52.458Z" style="fill:white;fill-rule:nonzero;"/>
        </g>
        <g transform="matrix(1,0,0,1,1150.76,802.424)">
            <path d="M0,29.248C2.796,24.76 4.194,19.601 4.194,13.767C4.194,7.602 2.581,2.637 -0.644,-1.123C-3.871,-4.886 -8.281,-6.766 -13.874,-6.766C-19.304,-6.766 -23.73,-4.903 -27.16,-1.179C-30.587,2.549 -32.302,8.041 -32.302,15.303C-32.302,21.111 -30.832,26.011 -27.892,29.997C-24.951,33.985 -20.183,35.978 -13.59,35.978C-7.327,35.978 -2.799,33.736 0,29.248M6.266,-4.161C9.741,0.483 11.479,6.423 11.479,13.659C11.479,21.493 9.493,28.004 5.517,33.194C0.85,39.288 -5.805,42.335 -14.446,42.335C-22.516,42.335 -28.862,39.669 -33.479,34.335C-37.598,29.193 -39.656,22.695 -39.656,14.839C-39.656,7.743 -37.896,1.673 -34.373,-3.374C-29.849,-9.849 -23.159,-13.087 -14.303,-13.087C-5.043,-13.087 1.813,-10.11 6.266,-4.161" style="fill:white;fill-rule:nonzero;"/>
        </g>
        <g transform="matrix(1,0,0,1,1199.1,836.011)">
            <path d="M0,-38.032C-1.571,-38.77 -3.728,-39.139 -6.465,-39.139L-20.606,-39.139L-20.606,-20.963L-6.465,-20.963C-3.273,-20.963 -0.686,-21.639 1.303,-22.998C3.29,-24.354 4.283,-26.748 4.283,-30.176C4.283,-34.033 2.855,-36.65 0,-38.032M-27.713,-45.245L-4.107,-45.245C0.559,-45.245 4.319,-43.929 7.177,-41.3C10.033,-38.669 11.463,-34.971 11.463,-30.212C11.463,-26.115 10.188,-22.551 7.641,-19.516C5.093,-16.481 1.177,-14.963 -4.107,-14.963L-20.606,-14.963L-20.606,7.213L-27.713,7.213L-27.713,-45.245Z" style="fill:white;fill-rule:nonzero;"/>
        </g>
        <g transform="matrix(1,0,0,1,1220.16,843.224)">
            <path d="M0,-52.458L38.245,-52.458L38.245,-46.03L6.929,-46.03L6.929,-30.104L35.89,-30.104L35.89,-24.033L6.929,-24.033L6.929,-6.249L38.781,-6.249L38.781,0L0,0L0,-52.458Z" style="fill:white;fill-rule:nonzero;"/>
        </g>
        <g transform="matrix(1,0,0,1,1292.66,819.191)">
            <path d="M0,-4.392C3.335,-4.392 5.971,-5.058 7.911,-6.391C9.85,-7.724 10.822,-10.129 10.822,-13.607C10.822,-17.344 9.464,-19.892 6.749,-21.248C5.299,-21.963 3.358,-22.32 0.931,-22.32L-16.426,-22.32L-16.426,-4.392L0,-4.392ZM-23.531,-28.425L0.751,-28.425C4.75,-28.425 8.047,-27.841 10.643,-26.675C15.57,-24.437 18.035,-20.308 18.035,-14.284C18.035,-11.141 17.386,-8.57 16.089,-6.571C14.792,-4.572 12.976,-2.964 10.643,-1.749C12.69,-0.916 14.23,0.178 15.267,1.535C16.304,2.893 16.88,5.095 17,8.142L17.249,15.176C17.32,17.176 17.487,18.665 17.749,19.639C18.177,21.308 18.94,22.379 20.035,22.854L20.035,24.033L11.322,24.033C11.084,23.582 10.892,22.998 10.751,22.282C10.607,21.569 10.487,20.188 10.392,18.14L9.964,9.391C9.797,5.963 8.523,3.667 6.145,2.499C4.786,1.857 2.655,1.535 -0.249,1.535L-16.426,1.535L-16.426,24.033L-23.531,24.033L-23.531,-28.425Z" style="fill:white;fill-rule:nonzero;"/>
        </g>
        <g transform="matrix(1.16333,0,0,1,955.91,734.299)">
            <path d="M0,-95.674L-45.857,-95.674L-45.857,-119.437L71.704,-119.437L71.704,-95.674L25.847,-95.674L25.847,23.763L0,23.763L0,-95.674Z" style="fill:white;fill-rule:nonzero;"/>
        </g>
        <g transform="matrix(1.16333,0,0,1,956.853,615.671)">
            <path d="M0,141.581L24.226,141.581L24.226,22.144L70.085,22.144L70.085,0.001L-45.858,0.001L-45.858,22.144L0,22.144L0,141.581ZM25.846,143.2L-1.619,143.2L-1.619,23.765L-47.479,23.765L-47.479,-1.619L71.705,-1.619L71.705,23.765L25.846,23.765L25.846,143.2Z" style="fill:white;fill-rule:nonzero;"/>
        </g>
        <g transform="matrix(0.769386,0,0,1,1119.51,758.061)">
            <path d="M0,-143.199L28.558,-143.199L59.198,-40.645L93.174,-143.199L121.522,-143.199L155.287,-40.645L185.928,-143.199L214.484,-143.199L169.255,0L143.199,0L107.349,-106.305L71.288,0L45.439,0L0,-143.199Z" style="fill:white;fill-rule:nonzero;"/>
        </g>
        <g transform="matrix(0.769386,0,0,1,1230.13,615.671)">
            <path d="M0,141.581L24.88,141.581L69.598,0.001L42.75,0.001L11.543,104.449L-22.846,0.001L-50.022,0.001L-84.623,104.44L-115.827,0.001L-142.675,0.001L-97.75,141.581L-73.073,141.581L-36.431,33.557L0,141.581ZM26.064,143.2L-1.164,143.2L-36.436,38.612L-71.913,143.2L-98.936,143.2L-144.89,-1.619L-114.621,-1.619L-84.543,99.05L-51.19,-1.619L-21.674,-1.619L11.468,99.042L41.544,-1.619L71.808,-1.619L26.064,143.2Z" style="fill:white;fill-rule:nonzero;"/>
        </g>
        <g transform="matrix(-1,0,0,1,2130.61,-73.1182)">
            <rect x="1037.11" y="687.17" width="6.479" height="156.779" style="fill:white;"/>
        </g>
        <g transform="matrix(-1,0,0,1,2187,89.397)">
            <rect x="874.309" y="681.062" width="438.381" height="6.479" style="fill:white;"/>
        </g>
    </g>
</svg>
